<?xml version="1.0" encoding="utf-8"?>
<svg viewBox="0 0 400 400" xmlns="http://www.w3.org/2000/svg">
  <circle style="fill: rgb(255, 255, 255);" cx="200" cy="200" r="200"/>
  <g id="svgg" transform="matrix(0.874501, 0, 0, 0.871487, 36.926777, 26.620094)" style="">
    <circle style="fill: rgb(255, 255, 255);" cx="183.641" cy="193.655" r="174.501" transform="matrix(1.020503, 0, 0, 1.037278, -0.187398, -0.714027)"/>
    <path id="path0" d="M 167.139 -1.337 C 151.788 0.526 139.397 2.929 129.739 5.917 C 123.031 7.993 115.343 10.708 110.739 12.627 C 109.309 13.223 107.419 14.009 106.539 14.375 C 102.366 16.107 89.466 22.791 84.301 25.897 C 14.474 67.891 -22.98 146.501 -11.633 227.248 C -9.227 244.364 -3.716 264.286 2.388 277.926 C 2.801 278.849 3.139 279.694 3.139 279.805 C 3.139 280.884 11.916 297.6 15.868 304.048 C 47.875 356.269 104.283 392.423 163.139 398.437 C 165.449 398.673 168.959 399.039 170.939 399.25 C 182.004 400.43 204.87 399.45 218.727 397.201 C 284.132 386.586 341.847 342.256 368.65 282.048 C 372.486 273.432 375.245 265.96 378.474 255.448 C 403.011 175.561 370.336 81.49 301.711 34.45 C 284.081 22.366 268.097 14.238 250.339 8.327 C 235.436 3.367 226.03 1.283 207.339 -1.197 C 201.803 -1.932 172.87 -2.033 167.139 -1.337 M 207.139 11.819 C 330.634 26.639 406.033 153.314 360.128 268.848 C 317.634 375.798 188.825 419.479 90.463 360.295 C -12.049 298.614 -31.668 158.13 49.938 70.118 C 76.23 41.763 109.253 23.193 148.939 14.448 C 153.802 13.377 161.565 12.303 172.139 11.239 C 177.518 10.698 201.048 11.088 207.139 11.819" stroke="none" fill="#060505" fill-rule="evenodd" style=""/>
    <path id="path1" d="M 201.239 -1.676 C 201.624 -1.576 202.254 -1.576 202.639 -1.676 C 203.024 -1.777 202.709 -1.859 201.939 -1.859 C 201.169 -1.859 200.854 -1.777 201.239 -1.676 M 172.139 11.239 C 161.565 12.303 153.802 13.377 148.939 14.448 C 53.903 35.39 -8.955 120.797 0.095 216.687 C 10.934 331.525 121.53 409.505 233.119 380.991 C 325.032 357.504 385.281 266.653 371.682 172.048 C 359.959 90.49 297.541 26.694 216.139 13.069 C 205.35 11.264 181.684 10.279 172.139 11.239 M 189.286 26.43 C 199.733 30.024 205.953 37.79 208.769 50.754 C 210.142 57.075 211.062 60.921 214.388 74.248 C 218.748 91.718 223.206 106.576 226.565 114.828 C 227.779 117.809 229.317 121.958 229.983 124.048 C 234.846 139.291 248.881 159.977 266.727 178.201 C 280.665 192.435 284.846 195.916 306.739 211.522 C 313.024 216.002 322.121 221.831 326.291 224.048 C 333.992 228.144 347.099 237.192 349.048 239.758 C 362.375 257.305 345.741 287.118 327.409 278.54 C 319.096 274.649 278.849 231.99 261.092 208.248 C 249.54 192.801 238.055 171.112 227.944 145.648 C 223.652 134.838 223.091 133.042 216.721 109.648 C 215.373 104.698 214.02 99.748 213.715 98.648 C 213.029 96.183 211.308 89.213 210.849 87.048 C 210.542 85.596 208.721 83.933 208.109 84.545 C 208.016 84.638 208.664 88.262 209.549 92.598 C 214.561 117.158 222.008 141.209 231.238 162.648 C 247.895 201.333 271.153 231.981 314.739 272.682 C 328.002 285.067 330.051 290.546 326.543 304.248 C 322.487 320.088 307.309 328.329 294.897 321.431 C 291.379 319.476 290.477 318.291 282.884 305.648 C 259.922 267.412 241.332 231.972 232.922 210.395 C 224.809 189.583 223.641 186.286 220.611 175.648 C 219.39 171.358 217.924 165.868 217.354 163.448 C 216.784 161.028 216.147 158.328 215.939 157.448 C 215.54 155.758 214.53 150.478 213.146 142.848 C 212.687 140.318 212.055 137.078 211.743 135.648 C 210.296 129.018 209.779 126.527 208.343 119.248 C 207.496 114.958 205.787 105.688 204.544 98.648 C 202.101 84.813 202.074 84.71 200.798 84.52 C 199.741 84.363 199.706 84.982 200.524 89.448 C 200.847 91.208 201.762 96.608 202.557 101.448 C 208.969 140.441 217.789 178.85 224.924 198.848 C 229.235 210.93 239.787 234.518 250.245 255.448 C 255.233 265.43 258.195 271.072 265.154 283.848 C 267.793 288.693 276.152 302.424 280.251 308.648 C 290.708 324.527 291.838 335.666 284.106 346.648 C 277.368 356.219 260.483 359.451 250.416 353.097 C 246.989 350.933 246.598 350.222 242.061 337.885 C 228.434 300.831 221.374 272.536 208.519 203.448 C 207.946 200.368 207.121 195.958 206.685 193.648 C 204.604 182.611 200.211 155.284 199.74 150.448 C 199.601 149.018 199.324 146.858 199.125 145.648 C 197.301 134.575 193.939 97.04 193.939 87.755 L 193.939 84.448 L 192.685 84.448 L 191.431 84.448 L 191.696 89.948 C 193.002 117.068 195.276 142.205 198.345 163.448 C 198.98 167.848 199.618 172.348 199.762 173.448 C 200.213 176.906 202.727 191.591 203.938 197.848 C 204.577 201.148 205.742 207.448 206.527 211.848 C 207.312 216.248 208.927 224.798 210.117 230.848 C 211.307 236.898 212.945 245.268 213.757 249.448 C 218.532 274.006 223.028 293.644 225.891 302.448 C 227.729 308.097 230.27 316.683 232.403 324.448 C 240.631 354.401 236.331 366.467 216.01 370.44 C 202.737 373.036 192.601 369.835 189.434 362.048 L 188.539 359.848 L 188.459 230.248 C 188.415 158.968 188.261 97.003 188.115 92.548 L 187.851 84.448 L 186.695 84.448 L 185.539 84.448 L 185.508 132.548 C 185.405 290.403 185.143 351.92 184.559 355.267 C 182.724 365.782 174.657 372.072 164.348 371.028 C 148.261 369.398 140.145 361.889 140.163 348.648 C 140.171 343.387 140.397 342.299 143.915 330.648 C 148.895 314.154 153.211 297.225 158.093 275.048 C 162.487 255.082 164.238 245.554 168.092 220.648 C 169.572 211.082 171.128 197.708 173.933 170.448 C 174.374 166.158 174.917 161.118 175.139 159.248 C 175.361 157.378 175.717 153.958 175.93 151.648 C 176.618 144.173 177.517 134.746 177.932 130.648 C 179.53 114.878 181.369 86.713 180.884 85.449 C 180.146 83.525 177.946 84.103 177.935 86.224 C 177.919 89.142 174.984 127.502 173.326 146.448 C 171.207 170.664 170.897 173.876 169.133 189.848 C 167.677 203.026 164.878 222.467 162.739 234.248 C 162.299 236.668 161.754 239.818 161.528 241.248 C 161.036 244.356 156.148 268.829 155.337 272.248 C 155.024 273.568 153.855 278.608 152.74 283.448 C 147.698 305.337 137.624 339.409 134.445 345.326 C 128.486 356.417 116.798 357.513 103.679 348.209 C 93.99 341.339 93.5 328.761 102.338 313.829 C 122.717 279.398 141.666 236.173 149.41 206.448 C 150.184 203.478 151.802 197.808 153.006 193.848 C 157.123 180.304 157.62 178.426 160.542 165.375 C 161.733 160.054 163.165 152.854 163.724 149.375 C 164.284 145.895 164.915 142.058 165.128 140.848 C 165.341 139.638 165.71 136.683 165.948 134.282 C 166.185 131.88 167.522 123.06 168.917 114.682 C 170.313 106.303 171.842 96.478 172.315 92.848 C 172.788 89.218 173.253 85.753 173.347 85.148 C 173.501 84.166 173.397 84.048 172.383 84.048 L 171.247 84.048 L 170.005 91.948 C 169.322 96.293 168.114 104.078 167.321 109.248 C 165.607 120.418 161.747 144.206 160.961 148.448 C 160.655 150.098 160.01 153.608 159.527 156.248 C 159.044 158.888 158.052 163.028 157.324 165.448 C 156.596 167.868 154.978 173.538 153.728 178.048 C 152.479 182.558 150.281 190.298 148.845 195.248 C 147.409 200.198 146.101 204.788 145.939 205.448 C 140.903 225.903 132.286 247.713 117.414 277.648 C 99.834 313.032 95.804 318.593 85.021 322.343 C 71.369 327.091 55.276 310.507 57.932 294.429 C 59.142 287.104 61.277 283.557 69.729 274.828 C 84.842 259.22 102.343 236.315 118.002 211.648 C 124.136 201.985 126.247 198.094 131.24 187.248 C 131.797 186.038 133.008 183.428 133.932 181.448 C 140.638 167.078 149.892 144.133 153.129 133.848 C 156.939 121.744 165.487 85.892 164.748 85.114 C 163.3 83.588 162.564 84.925 161.259 91.448 C 155.992 117.791 150.473 136.178 142.349 154.45 C 140.608 158.365 137.846 164.962 136.211 169.108 C 123.934 200.24 99.954 236.852 73.047 265.549 C 60.149 279.304 53.82 283.248 44.644 283.248 C 33.117 283.248 21.963 266.831 25.389 254.91 C 27.066 249.075 29.895 245.777 41.739 235.849 C 48.634 230.07 60.298 220.114 77.139 205.633 C 98.672 187.118 108.787 177.44 115.262 169.158 C 133.464 145.875 147.12 112.241 155.908 69.048 C 158.286 57.361 162.774 42.37 165.111 38.309 C 167.136 34.789 173.372 29.283 176.939 27.866 C 183.054 25.436 185.553 25.145 189.286 26.43 M 320.339 49.373 C 320.339 49.442 320.924 50.027 321.639 50.673 L 322.939 51.848 L 321.764 50.548 C 320.669 49.336 320.339 49.064 320.339 49.373 M 48.92 52.548 L 47.339 54.248 L 49.039 52.667 C 50.62 51.196 50.923 50.848 50.62 50.848 C 50.555 50.848 49.79 51.613 48.92 52.548 M 44.114 57.348 L 42.939 58.648 L 44.239 57.473 C 44.954 56.827 45.539 56.242 45.539 56.173 C 45.539 55.864 45.209 56.136 44.114 57.348 M 41.314 60.148 L 40.139 61.448 L 41.439 60.273 C 42.651 59.178 42.923 58.848 42.614 58.848 C 42.545 58.848 41.96 59.433 41.314 60.148 M 332.739 61.773 C 332.739 61.842 333.324 62.427 334.039 63.073 L 335.339 64.248 L 334.164 62.948 C 333.069 61.736 332.739 61.464 332.739 61.773 M 36.914 64.948 L 35.739 66.248 L 37.039 65.073 C 38.251 63.978 38.523 63.648 38.214 63.648 C 38.145 63.648 37.56 64.233 36.914 64.948 M 147.622 85.848 C 147.342 92.584 142.499 107.248 140.554 107.248 C 135.616 107.248 108.753 87.546 109.222 84.268 C 109.352 83.359 117.903 83.002 138.739 83.034 L 147.739 83.048 L 147.622 85.848 M 257.828 85.663 C 257.339 89.309 250.949 94.755 237.812 102.724 C 229.48 107.779 229.025 107.888 227.758 105.148 C 223.992 96.999 221.049 86.212 222.119 84.48 C 222.304 84.181 227.888 84.048 240.215 84.048 L 258.044 84.048 L 257.828 85.663 M 385.632 180.048 C 385.632 180.818 385.714 181.133 385.815 180.748 C 385.915 180.363 385.915 179.733 385.815 179.348 C 385.714 178.963 385.632 179.278 385.632 180.048 M -13.168 182.048 C -13.168 182.818 -13.086 183.133 -12.985 182.748 C -12.885 182.363 -12.885 181.733 -12.985 181.348 C -13.086 180.963 -13.168 181.278 -13.168 182.048 M 332.514 336.148 L 331.339 337.448 L 332.639 336.273 C 333.354 335.627 333.939 335.042 333.939 334.973 C 333.939 334.664 333.609 334.936 332.514 336.148 M 44.539 340.848 C 46.51 342.828 48.212 344.448 48.322 344.448 C 48.432 344.448 46.91 342.828 44.939 340.848 C 42.968 338.868 41.266 337.248 41.156 337.248 C 41.046 337.248 42.568 338.868 44.539 340.848 M 322.124 346.548 L 320.139 348.648 L 322.239 346.663 C 323.394 345.571 324.339 344.626 324.339 344.563 C 324.339 344.265 323.968 344.597 322.124 346.548 M 204.439 399.124 C 204.824 399.224 205.454 399.224 205.839 399.124 C 206.224 399.023 205.909 398.941 205.139 398.941 C 204.369 398.941 204.054 399.023 204.439 399.124" stroke="none" fill="#cc1415" fill-rule="evenodd" style=""/>
  </g>
</svg>
