<svg xmlns="http://www.w3.org/2000/svg" style="width:100%;height:100%;background-size:initial;background-repeat-y:initial;background-repeat-x:initial;background-position-y:initial;background-position-x:initial;background-origin:initial;background-color:initial;background-clip:initial;background-attachment:initial" viewBox="10 10 80 80">
  <g class="ldl-scale" style="transform-origin:50% 50%">
    <circle cx="50" cy="50" r="40" fill="#333"/>
    <path fill="#b3b3b3" fill-rule="evenodd" d="M75 59.2c0-3.8-2.5-7.1-5.9-8.2.1-.8.2-1.6.2-2.4 0-9-7.3-16.4-16.4-16.4-7.8 0-14.3 5.4-16 12.7h-.4C30.1 44.8 25 50 25 56.3c0 6.3 5.1 11.5 11.5 11.5h31v-.1c4.2-.5 7.5-4.1 7.5-8.5z" clip-rule="evenodd"/>
    <path fill="#fff" d="M61.4 50.9c.4 0 .6.5.4.9L51.7 63.1c-.1.1-.2.2-.4.2-.1 0-.3-.1-.4-.2l-10-11.4c-.3-.3-.1-.9.4-.9h7v-7.6c0-.4.3-.7.7-.7h4.8c.4 0 .7.3.7.7v7.6h6.9z"/>
  </g>
</svg>
