<svg xmlns="http://www.w3.org/2000/svg" viewBox="0 0 640 640">
  <rect width="640" height="640" style="fill:#fff"/>
  <path fill="#fbb310" stroke="#666" stroke-linecap="round" stroke-width="6" d="M 302.713 457.162 C 279.957 457.162 261.116 447.925 246.19 429.451 C 231.265 410.978 223.802 386.815 223.802 356.963 C 223.802 327.112 228.94 299.89 239.217 275.299 C 249.494 250.708 264.175 230.705 283.26 215.29 C 302.346 199.875 322.716 192.167 344.371 192.167 C 366.025 192.167 383.52 197.061 396.856 206.848 C 410.191 216.636 416.859 228.32 416.859 241.9 C 416.859 255.48 412.822 267.041 404.747 276.584 C 396.917 276.584 388.108 274.871 378.321 271.446 C 368.533 268.02 361.193 263.86 356.299 258.967 L 363.273 221.897 C 357.4 218.226 349.693 216.391 340.15 216.391 C 325.224 216.391 312.011 229.176 300.511 254.746 C 289.011 280.315 283.26 311.819 283.26 349.256 C 283.26 373.969 287.359 391.892 295.556 403.025 C 303.753 414.159 313.724 419.725 325.469 419.725 C 344.799 419.725 363.395 410.672 381.257 392.565 L 396.305 406.145 C 393.614 410.06 388.72 415.443 381.624 422.294 C 374.528 429.146 367.555 434.835 360.703 439.361 C 353.852 443.888 345.166 447.986 334.644 451.657 C 324.123 455.327 313.479 457.162 302.713 457.162 Z" alignment-baseline="before-edge" paint-order="fill" style="line-height:350px text-transform uppercase;white-space:pre;vector-effect:non-scaling-stroke;stroke-linejoin:round;"/>
  <g transform="matrix(0.873878, 0, 0, 0.873878, 39.485073, 39.485073)" style="">
    <path fill="#e75d20" stroke="#000" stroke-width="6" stroke-opacity=".5" d="M2 272h43.44V45.44H272V2H2v270z"/>
    <path fill="#89c33e" stroke="#000" stroke-width="6" stroke-opacity=".5" d="M370 2v43.44h226.56V272H640V2H370z"/>
    <path fill="#44c4e7" stroke="#000" stroke-width="6" stroke-opacity=".5" d="M640 370h-43.44v226.56H370V640h270V370z"/>
    <path fill="#e7dd20" stroke="#000" stroke-width="6" stroke-opacity=".5" d="M272 640v-43.44H45.44V370H2v270h270z" paint-order="fill"/>
  </g>
</svg>
