<svg xmlns="http://www.w3.org/2000/svg" viewBox="0 0 612 612">
  <defs/>
  <path fill-rule="evenodd" d="M133.139 133.327h125.903v125.11H133.139v-125.11zM178.001 0h-62.877A113.582 113.582 0 0071.36 8.716a115.478 115.478 0 00-37.377 24.902A115.318 115.318 0 009.032 70.922 113.223 113.223 0 000 114.899v77.546h51.05v-77.546a64.13 64.13 0 014.99-24.404 63.305 63.305 0 0113.823-20.768 64.093 64.093 0 0145.261-18.677h62.877V0zm318.725 0h-41.069v50.95h41.069a64.698 64.698 0 0124.452 4.981 65.642 65.642 0 0120.809 13.796l1.747 1.793a65.122 65.122 0 0112.226 19.025 63.007 63.007 0 014.99 24.354v77.546H612v-77.546a114.183 114.183 0 00-32.037-79.338l-1.847-1.843A115.616 115.616 0 00540.74 8.815 113.829 113.829 0 00496.726 0zM611.85 497.101v-86.113H560.8v86.113a63.007 63.007 0 01-4.99 24.354 65.118 65.118 0 01-13.972 20.769 63.944 63.944 0 01-45.212 18.826h-40.969V612h41.069a114.874 114.874 0 0081.291-33.768 116.196 116.196 0 0024.951-37.303 114.366 114.366 0 008.733-43.828zM115.124 612h62.877v-50.95h-62.877a63.95 63.95 0 01-45.261-18.826l-1.297-1.196a63.906 63.906 0 01-13.025-20.32A63.132 63.132 0 0151 497.101v-86.113H0v86.113a112.555 112.555 0 008.334 42.682 113.84 113.84 0 0023.903 36.756l1.547 1.743a115.78 115.78 0 0037.426 24.903 114.238 114.238 0 0043.914 8.715zm331.949-164.853h31.988v31.526h-31.988v-31.526zm-61.679 0h32.137v29.882h-64.224V415.72h30.94v-31.128h31.638v-62.057h32.236v30.481h30.54v31.526h-30.54v31.526h-62.727v31.029zm-95.263-63.053h31.089v-31.527h-29.941v-31.526h29.941v-31.526h-30.59v31.526h-32.137v-31.526h31.588v-93.633h32.087v93.583h31.089v31.526h30.59v-31.526h32.087v31.526h-30.54v31.527h-32.087v62.056h-31.089v62.605h-32.087v-93.085zm156.443-94.629h32.087v31.526h-32.087v-31.526zm-250.708 0h32.087v31.526h-32.087v-31.526zm-62.727 0h32.087v31.526h-32.087v-31.526zm156.992-156.138h32.087v31.527h-32.087v-31.527zM132.64 353.016h125.853v125.109H132.64V353.016zm30.59 30.48h64.873v64.298H163.23v-64.298zm189.628-250.119h125.803v125.06H352.808v-125.11zm30.59 30.381h64.873v64.298h-64.873v-64.348zm-219.569 0h64.873v64.298h-64.873v-64.348z"/>
</svg>
