<svg xmlns="http://www.w3.org/2000/svg" viewBox="0 0 612 612">
  <defs/>
  <circle cx="302.923" cy="308" r="298.538" fill="#fff"/>
  <path fill="#417bad" d="M306.12 612.24a306.12 306.12 0 110-612.24 306.12 306.12 0 010 612.24zm61.224-397.956c0 8.571-6.429 24.49-12.857 30.612l-48.367 48.367c-17.449 17.755-30.612 48.98-30.612 74.081v30.612h61.224v-30.612c0-8.877 6.429-24.49 12.857-30.612l48.367-48.367c17.449-17.755 30.612-48.98 30.612-74.081a122.448 122.448 0 10-244.896 0h61.224a61.224 61.224 0 11122.448 0zM275.508 459.18v61.224h61.224V459.18h-61.224z" />
</svg>
