<?xml version="1.0" standalone="no"?>
<!DOCTYPE svg PUBLIC "-//W3C//DTD SVG 20010904//EN"
 "http://www.w3.org/TR/2001/REC-SVG-20010904/DTD/svg10.dtd">
<svg version="1.0" xmlns="http://www.w3.org/2000/svg"
 width="700.000000pt" height="700.000000pt" viewBox="0 0 700.000000 700.000000"
 preserveAspectRatio="xMidYMid meet">
<metadata>
Created by potrace 1.14, written by Peter Selinger 2001-2017
</metadata>
<g transform="translate(0.000000,700.000000) scale(0.100000,-0.100000)"
fill="#000000" stroke="none">
<path d="M0 5515 l0 -1485 245 0 245 0 2 1238 3 1237 1238 3 1237 2 0 245 0
245 -1485 0 -1485 0 0 -1485z"/>
<path d="M4030 6755 l0 -245 1238 -2 1237 -3 3 -1237 2 -1238 245 0 245 0 0
1485 0 1485 -1485 0 -1485 0 0 -245z"/>
<path d="M3640 5104 c-283 -52 -504 -171 -736 -399 -228 -225 -388 -492 -497
-830 -148 -461 -166 -1007 -46 -1375 92 -279 296 -528 526 -640 114 -56 214
-80 358 -87 150 -6 275 13 436 67 221 73 380 170 574 346 74 67 205 211 213
233 1 4 -43 49 -99 99 l-102 91 -71 -65 c-91 -84 -227 -174 -323 -214 -110
-46 -200 -62 -318 -58 -131 5 -192 33 -290 132 -154 155 -207 355 -206 766 0
240 19 447 57 644 87 443 283 818 486 926 53 28 76 35 144 38 120 6 274 -32
274 -68 0 -9 -18 -113 -40 -230 -22 -117 -40 -216 -40 -221 0 -4 29 -29 65
-54 117 -84 329 -158 486 -171 l77 -7 32 44 c81 110 123 244 124 394 0 79 -5
114 -22 167 -69 200 -285 373 -557 444 -87 23 -124 27 -290 29 -104 2 -201 1
-215 -1z"/>
<path d="M0 1485 l0 -1485 1485 0 1485 0 0 245 0 245 -1237 2 -1238 3 -3 1238
-2 1237 -245 0 -245 0 0 -1485z"/>
<path d="M6508 1733 l-3 -1238 -1237 -3 -1238 -2 0 -245 0 -245 1485 0 1485 0
0 1485 0 1485 -245 0 -245 0 -2 -1237z"/>
</g>
</svg>
